# MagicaVoxel @ Ephtracy

# group
o 

# material
mtllib tong.mtl
usemtl palette

# normals
vn -1 0 0
vn 1 0 0
vn 0 0 1
vn 0 0 -1
vn 0 -1 0
vn 0 1 0

# texcoords
vt 0.0410156 0.5
vt 0.0644531 0.5
vt 0.841797 0.5

# verts
v 0 2 0
v 0 2 -0.1
v 0 2 -1.5
v 0 4.4 -0.1
v 0 4.4 -0.3
v 0 4.5 0
v 0 4.5 -0.3
v 0 4.5 -1.5
v 4 2 0
v 4 2 -0.1
v 4 2 -1.5
v 4 4.4 -0.1
v 4 4.4 -0.3
v 4 4.5 0
v 4 4.5 -0.3
v 4 4.5 -1.5
v 0 2 0
v 0 4.5 0
v 0.1 2.1 0
v 0.1 4.4 0
v 0.3 2.5 0
v 0.3 4 0
v 0.4 2.5 0
v 0.4 3.9 0
v 0.5 2.9 0
v 0.5 3.4 0
v 0.5 3.6 0
v 0.5 3.7 0
v 0.6 3.1 0
v 0.6 3.3 0
v 0.7 3 0
v 0.7 3.1 0
v 0.8 3.2 0
v 0.8 3.3 0
v 0.9 3 0
v 0.9 3.2 0
v 1 2.9 0
v 1 3.4 0
v 1 3.6 0
v 1 3.7 0
v 1.1 2.5 0
v 1.1 3.9 0
v 1.2 2.5 0
v 1.2 4 0
v 1.5 3 0
v 1.5 3.1 0
v 1.5 3.9 0
v 1.5 4 0
v 1.6 2.5 0
v 1.6 2.8 0
v 1.6 3.6 0
v 1.6 3.7 0
v 1.7 2.6 0
v 1.7 2.7 0
v 1.7 2.9 0
v 1.7 3 0
v 1.7 3.1 0
v 1.7 3.2 0
v 1.7 3.3 0
v 1.7 3.4 0
v 1.7 4 0
v 1.7 4.1 0
v 1.8 2.9 0
v 1.8 3 0
v 1.8 3.1 0
v 1.8 3.2 0
v 1.8 4 0
v 1.8 4.1 0
v 1.9 3.1 0
v 1.9 3.3 0
v 1.9 3.4 0
v 1.9 3.6 0
v 1.9 3.7 0
v 1.9 3.9 0
v 2 3.1 0
v 2 3.3 0
v 2 3.4 0
v 2 3.6 0
v 2 3.7 0
v 2 3.9 0
v 2 4 0
v 2 4.1 0
v 2.1 4 0
v 2.1 4.1 0
v 2.2 2.6 0
v 2.2 2.7 0
v 2.2 2.9 0
v 2.2 3 0
v 2.2 3.1 0
v 2.2 3.2 0
v 2.2 3.6 0
v 2.2 3.7 0
v 2.3 2.5 0
v 2.3 2.8 0
v 2.3 2.9 0
v 2.3 3 0
v 2.3 3.1 0
v 2.3 3.2 0
v 2.3 3.3 0
v 2.3 3.4 0
v 2.4 3 0
v 2.4 3.1 0
v 2.4 3.9 0
v 2.4 4 0
v 2.6 3.5 0
v 2.6 3.8 0
v 2.7 3.5 0
v 2.7 3.7 0
v 2.8 2.5 0
v 2.8 2.6 0
v 2.9 3.2 0
v 2.9 3.5 0
v 2.9 3.8 0
v 2.9 4 0
v 3 2.7 0
v 3 2.9 0
v 3 3.8 0
v 3 4 0
v 3.1 3.8 0
v 3.1 4.1 0
v 3.2 2.6 0
v 3.2 2.7 0
v 3.2 2.9 0
v 3.2 3.1 0
v 3.2 3.8 0
v 3.2 4.1 0
v 3.3 2.6 0
v 3.3 2.7 0
v 3.3 2.9 0
v 3.3 3.1 0
v 3.3 3.8 0
v 3.3 4 0
v 3.4 3.8 0
v 3.4 4 0
v 3.5 2.7 0
v 3.5 2.9 0
v 3.5 3.2 0
v 3.5 3.5 0
v 3.7 3.5 0
v 3.7 3.7 0
v 3.8 2.5 0
v 3.8 2.6 0
v 3.8 3.5 0
v 3.8 3.8 0
v 3.9 2.1 0
v 3.9 4.4 0
v 4 2 0
v 4 4.5 0
v 0 2 -1.5
v 0 4.5 -1.5
v 4 2 -1.5
v 4 4.5 -1.5
v 0 2 0
v 4 2 0
v 0 2 -0.1
v 4 2 -0.1
v 0 2 -1.5
v 4 2 -1.5
v 0 4.5 0
v 4 4.5 0
v 0 4.5 -0.3
v 4 4.5 -0.3
v 0 4.5 -1.5
v 4 4.5 -1.5

# faces
f 4/1/1 2/1/1 1/1/1
f 4/3/1 3/3/1 2/3/1
f 5/3/1 3/3/1 4/3/1
f 6/1/1 4/1/1 1/1/1
f 6/1/1 5/1/1 4/1/1
f 7/3/1 3/3/1 5/3/1
f 7/1/1 5/1/1 6/1/1
f 8/3/1 3/3/1 7/3/1
f 9/1/2 10/1/2 12/1/2
f 10/3/2 11/3/2 12/3/2
f 12/3/2 11/3/2 13/3/2
f 9/1/2 12/1/2 14/1/2
f 12/1/2 13/1/2 14/1/2
f 13/3/2 11/3/2 15/3/2
f 14/1/2 13/1/2 15/1/2
f 15/3/2 11/3/2 16/3/2
f 19/1/3 18/1/3 17/1/3
f 20/1/3 18/1/3 19/1/3
f 21/3/3 20/3/3 19/3/3
f 22/3/3 20/3/3 21/3/3
f 23/3/3 21/3/3 19/3/3
f 23/2/3 22/2/3 21/2/3
f 24/2/3 22/2/3 23/2/3
f 25/3/3 24/3/3 23/3/3
f 26/3/3 24/3/3 25/3/3
f 27/3/3 24/3/3 26/3/3
f 28/3/3 24/3/3 27/3/3
f 29/2/3 26/2/3 25/2/3
f 30/2/3 26/2/3 29/2/3
f 31/2/3 29/2/3 25/2/3
f 32/3/3 30/3/3 29/3/3
f 32/2/3 29/2/3 31/2/3
f 33/3/3 32/3/3 31/3/3
f 33/3/3 30/3/3 32/3/3
f 34/2/3 26/2/3 30/2/3
f 34/3/3 30/3/3 33/3/3
f 35/3/3 33/3/3 31/3/3
f 35/2/3 31/2/3 25/2/3
f 36/2/3 34/2/3 33/2/3
f 36/3/3 33/3/3 35/3/3
f 37/3/3 25/3/3 23/3/3
f 37/2/3 35/2/3 25/2/3
f 37/2/3 36/2/3 35/2/3
f 38/2/3 34/2/3 36/2/3
f 38/2/3 36/2/3 37/2/3
f 38/3/3 27/3/3 26/3/3
f 38/2/3 26/2/3 34/2/3
f 39/2/3 28/2/3 27/2/3
f 39/3/3 27/3/3 38/3/3
f 40/3/3 24/3/3 28/3/3
f 40/2/3 28/2/3 39/2/3
f 41/3/3 23/3/3 19/3/3
f 41/3/3 37/3/3 23/3/3
f 41/3/3 40/3/3 39/3/3
f 41/3/3 38/3/3 37/3/3
f 41/3/3 39/3/3 38/3/3
f 42/3/3 24/3/3 40/3/3
f 42/3/3 40/3/3 41/3/3
f 42/2/3 22/2/3 24/2/3
f 43/3/3 41/3/3 19/3/3
f 43/2/3 42/2/3 41/2/3
f 44/3/3 20/3/3 22/3/3
f 44/2/3 42/2/3 43/2/3
f 44/2/3 22/2/3 42/2/3
f 45/3/3 44/3/3 43/3/3
f 46/3/3 44/3/3 45/3/3
f 47/3/3 44/3/3 46/3/3
f 48/3/3 20/3/3 44/3/3
f 48/3/3 44/3/3 47/3/3
f 49/3/3 43/3/3 19/3/3
f 49/3/3 45/3/3 43/3/3
f 50/3/3 45/3/3 49/3/3
f 51/3/3 47/3/3 46/3/3
f 52/3/3 47/3/3 51/3/3
f 53/2/3 50/2/3 49/2/3
f 54/2/3 50/2/3 53/2/3
f 55/3/3 45/3/3 50/3/3
f 56/2/3 46/2/3 45/2/3
f 56/3/3 45/3/3 55/3/3
f 57/3/3 51/3/3 46/3/3
f 57/2/3 46/2/3 56/2/3
f 58/3/3 51/3/3 57/3/3
f 59/3/3 51/3/3 58/3/3
f 60/3/3 51/3/3 59/3/3
f 61/3/3 20/3/3 48/3/3
f 61/2/3 48/2/3 47/2/3
f 62/3/3 20/3/3 61/3/3
f 63/3/3 55/3/3 50/3/3
f 63/2/3 56/2/3 55/2/3
f 63/2/3 57/2/3 56/2/3
f 63/2/3 58/2/3 57/2/3
f 64/2/3 58/2/3 63/2/3
f 65/2/3 58/2/3 64/2/3
f 66/3/3 59/3/3 58/3/3
f 66/2/3 58/2/3 65/2/3
f 67/2/3 62/2/3 61/2/3
f 67/2/3 61/2/3 47/2/3
f 68/3/3 20/3/3 62/3/3
f 68/2/3 62/2/3 67/2/3
f 69/3/3 66/3/3 65/3/3
f 69/2/3 65/2/3 64/2/3
f 70/2/3 60/2/3 59/2/3
f 70/3/3 66/3/3 69/3/3
f 70/3/3 59/3/3 66/3/3
f 71/3/3 51/3/3 60/3/3
f 71/2/3 60/2/3 70/2/3
f 72/2/3 52/2/3 51/2/3
f 72/3/3 51/3/3 71/3/3
f 73/3/3 47/3/3 52/3/3
f 73/2/3 52/2/3 72/2/3
f 74/2/3 67/2/3 47/2/3
f 74/3/3 47/3/3 73/3/3
f 75/2/3 70/2/3 69/2/3
f 75/2/3 69/2/3 64/2/3
f 75/2/3 74/2/3 73/2/3
f 75/2/3 73/2/3 72/2/3
f 75/2/3 72/2/3 71/2/3
f 75/2/3 71/2/3 70/2/3
f 76/2/3 74/2/3 75/2/3
f 77/2/3 74/2/3 76/2/3
f 78/2/3 74/2/3 77/2/3
f 79/2/3 74/2/3 78/2/3
f 80/2/3 67/2/3 74/2/3
f 80/2/3 74/2/3 79/2/3
f 81/3/3 68/3/3 67/3/3
f 81/2/3 67/2/3 80/2/3
f 82/3/3 20/3/3 68/3/3
f 82/3/3 68/3/3 81/3/3
f 83/2/3 81/2/3 80/2/3
f 83/2/3 82/2/3 81/2/3
f 84/3/3 20/3/3 82/3/3
f 84/2/3 82/2/3 83/2/3
f 85/3/3 54/3/3 53/3/3
f 85/2/3 53/2/3 49/2/3
f 86/2/3 50/2/3 54/2/3
f 86/3/3 54/3/3 85/3/3
f 87/3/3 63/3/3 50/3/3
f 87/3/3 64/3/3 63/3/3
f 88/2/3 75/2/3 64/2/3
f 88/3/3 64/3/3 87/3/3
f 89/3/3 76/3/3 75/3/3
f 89/2/3 75/2/3 88/2/3
f 90/3/3 76/3/3 89/3/3
f 91/2/3 79/2/3 78/2/3
f 91/3/3 78/3/3 77/3/3
f 92/3/3 80/3/3 79/3/3
f 92/2/3 79/2/3 91/2/3
f 93/2/3 85/2/3 49/2/3
f 93/3/3 49/3/3 19/3/3
f 93/2/3 86/2/3 85/2/3
f 94/2/3 50/2/3 86/2/3
f 94/2/3 86/2/3 93/2/3
f 94/3/3 87/3/3 50/3/3
f 95/2/3 89/2/3 88/2/3
f 95/3/3 87/3/3 94/3/3
f 95/2/3 90/2/3 89/2/3
f 95/2/3 88/2/3 87/2/3
f 96/2/3 90/2/3 95/2/3
f 97/2/3 90/2/3 96/2/3
f 98/3/3 76/3/3 90/3/3
f 98/2/3 90/2/3 97/2/3
f 99/2/3 77/2/3 76/2/3
f 99/3/3 76/3/3 98/3/3
f 100/3/3 91/3/3 77/3/3
f 100/2/3 77/2/3 99/2/3
f 100/3/3 92/3/3 91/3/3
f 101/2/3 97/2/3 96/2/3
f 101/3/3 96/3/3 95/3/3
f 101/3/3 94/3/3 93/3/3
f 101/3/3 95/3/3 94/3/3
f 102/3/3 99/3/3 98/3/3
f 102/2/3 97/2/3 101/2/3
f 102/3/3 100/3/3 99/3/3
f 102/3/3 98/3/3 97/3/3
f 103/3/3 92/3/3 100/3/3
f 103/3/3 100/3/3 102/3/3
f 103/3/3 80/3/3 92/3/3
f 103/2/3 83/2/3 80/2/3
f 104/3/3 84/3/3 83/3/3
f 104/2/3 83/2/3 103/2/3
f 105/3/3 102/3/3 101/3/3
f 105/3/3 103/3/3 102/3/3
f 105/3/3 104/3/3 103/3/3
f 106/3/3 104/3/3 105/3/3
f 107/3/3 105/3/3 101/3/3
f 107/2/3 106/2/3 105/2/3
f 108/2/3 106/2/3 107/2/3
f 109/3/3 93/3/3 19/3/3
f 109/3/3 101/3/3 93/3/3
f 109/3/3 108/3/3 107/3/3
f 109/3/3 107/3/3 101/3/3
f 110/3/3 108/3/3 109/3/3
f 111/3/3 108/3/3 110/3/3
f 112/3/3 108/3/3 111/3/3
f 113/2/3 106/2/3 108/2/3
f 113/3/3 104/3/3 106/3/3
f 114/3/3 84/3/3 104/3/3
f 114/3/3 104/3/3 113/3/3
f 115/3/3 111/3/3 110/3/3
f 116/3/3 111/3/3 115/3/3
f 117/2/3 113/2/3 108/2/3
f 117/2/3 114/2/3 113/2/3
f 118/3/3 84/3/3 114/3/3
f 118/2/3 114/2/3 117/2/3
f 119/2/3 117/2/3 108/2/3
f 119/3/3 118/3/3 117/3/3
f 120/3/3 20/3/3 84/3/3
f 120/3/3 118/3/3 119/3/3
f 120/3/3 84/3/3 118/3/3
f 121/2/3 110/2/3 109/2/3
f 121/3/3 115/3/3 110/3/3
f 122/2/3 116/2/3 115/2/3
f 122/3/3 115/3/3 121/3/3
f 123/3/3 111/3/3 116/3/3
f 123/2/3 116/2/3 122/2/3
f 124/3/3 111/3/3 123/3/3
f 125/2/3 119/2/3 108/2/3
f 125/2/3 120/2/3 119/2/3
f 126/3/3 20/3/3 120/3/3
f 126/2/3 120/2/3 125/2/3
f 127/2/3 122/2/3 121/2/3
f 127/2/3 124/2/3 123/2/3
f 127/2/3 121/2/3 109/2/3
f 127/2/3 123/2/3 122/2/3
f 128/2/3 124/2/3 127/2/3
f 129/2/3 124/2/3 128/2/3
f 130/3/3 111/3/3 124/3/3
f 130/2/3 124/2/3 129/2/3
f 131/2/3 125/2/3 108/2/3
f 131/3/3 126/3/3 125/3/3
f 132/3/3 126/3/3 131/3/3
f 133/2/3 131/2/3 108/2/3
f 133/2/3 132/2/3 131/2/3
f 134/3/3 126/3/3 132/3/3
f 134/2/3 132/2/3 133/2/3
f 135/2/3 129/2/3 128/2/3
f 135/3/3 128/3/3 127/3/3
f 136/3/3 130/3/3 129/3/3
f 136/2/3 129/2/3 135/2/3
f 137/2/3 112/2/3 111/2/3
f 137/3/3 130/3/3 136/3/3
f 137/3/3 111/3/3 130/3/3
f 138/3/3 108/3/3 112/3/3
f 138/2/3 112/2/3 137/2/3
f 139/3/3 137/3/3 136/3/3
f 139/3/3 108/3/3 138/3/3
f 139/3/3 138/3/3 137/3/3
f 139/3/3 136/3/3 135/3/3
f 140/2/3 133/2/3 108/2/3
f 140/3/3 108/3/3 139/3/3
f 141/2/3 127/2/3 109/2/3
f 141/3/3 109/3/3 19/3/3
f 142/3/3 139/3/3 135/3/3
f 142/2/3 127/2/3 141/2/3
f 142/3/3 135/3/3 127/3/3
f 143/2/3 140/2/3 139/2/3
f 143/3/3 139/3/3 142/3/3
f 144/3/3 134/3/3 133/3/3
f 144/2/3 140/2/3 143/2/3
f 144/2/3 133/2/3 140/2/3
f 145/1/3 19/1/3 17/1/3
f 145/3/3 143/3/3 142/3/3
f 145/3/3 144/3/3 143/3/3
f 145/3/3 142/3/3 141/3/3
f 145/3/3 141/3/3 19/3/3
f 146/3/3 134/3/3 144/3/3
f 146/3/3 144/3/3 145/3/3
f 146/1/3 18/1/3 20/1/3
f 146/3/3 126/3/3 134/3/3
f 146/3/3 20/3/3 126/3/3
f 147/1/3 145/1/3 17/1/3
f 147/1/3 146/1/3 145/1/3
f 148/1/3 18/1/3 146/1/3
f 148/1/3 146/1/3 147/1/3
f 149/3/4 150/3/4 151/3/4
f 151/3/4 150/3/4 152/3/4
f 155/1/5 154/1/5 153/1/5
f 156/1/5 154/1/5 155/1/5
f 157/3/5 156/3/5 155/3/5
f 158/3/5 156/3/5 157/3/5
f 159/1/6 160/1/6 161/1/6
f 161/1/6 160/1/6 162/1/6
f 161/3/6 162/3/6 163/3/6
f 163/3/6 162/3/6 164/3/6
